<?xml version="1.0" encoding="iso-8859-1"?>
<!-- Generator: Adobe Illustrator 19.2.1, SVG Export Plug-In . SVG Version: 6.00 Build 0)  -->
<svg version="1.1" id="Layer_1" xmlns="http://www.w3.org/2000/svg" xmlns:xlink="http://www.w3.org/1999/xlink" x="0px" y="0px"
	 viewBox="0 0 40 40" style="enable-background:new 0 0 40 40;" xml:space="preserve">
<g>
	<linearGradient id="SVGID_1_" gradientUnits="userSpaceOnUse" x1="20" y1="0.7632" x2="20" y2="39.4915">
		<stop  offset="0" style="stop-color:#E6E7E8"/>
		<stop  offset="1" style="stop-color:#F1F2F2"/>
	</linearGradient>
	<rect style="fill:url(#SVGID_1_);" width="40" height="40"/>
	<g>
		<path style="fill:#636F7E;" d="M31.65,31.683c-0.037-0.216-0.075-0.432-0.114-0.648c-0.453-2.467-1.192-6.389-4.016-8.51
			c0.208-1.381,0.315-3.528,0.315-6.722c0-5.098-3.306-9.224-7.382-9.224c-2.779,0-4.546,1.969-4.546,1.969
			c-1.721,1.691-2.835,4.308-2.835,7.265c0,3.185,0.111,5.332,0.314,6.708c-2.836,2.1-3.563,6.054-4.015,8.522
			c-0.039,0.216-0.077,0.432-0.114,0.647c-0.194,1.14,0.573,2.221,1.713,2.415c0.119,0.02,0.237,0.03,0.353,0.03l7.327-0.002
			l0-0.001l10.934-0.005c0.116,0,0.234-0.01,0.353-0.03C31.076,33.904,31.844,32.823,31.65,31.683z M20.455,26.896l-3.893-1.983
			l2.019-3.183c0.547,0.279,1.269,0.438,1.871,0.438c0.605,0,1.314-0.161,1.863-0.443l2.014,3.189L20.455,26.896z M20.453,20.79
			c-3.705,0-5.3-5.013-4.982-6.578c4.073-3.542,7.679-3.298,7.679-3.298s0.647,2.008,2.309,4.43
			C25.168,17.732,22.748,20.79,20.453,20.79z"/>
	</g>
</g>
</svg>
