<?xml version="1.0" encoding="iso-8859-1"?>
<!-- Generator: Adobe Illustrator 19.2.1, SVG Export Plug-In . SVG Version: 6.00 Build 0)  -->
<svg version="1.1" id="Layer_1" xmlns="http://www.w3.org/2000/svg" xmlns:xlink="http://www.w3.org/1999/xlink" x="0px" y="0px"
	 viewBox="0 0 40 40" style="enable-background:new 0 0 40 40;" xml:space="preserve">
<g>
	<linearGradient id="SVGID_1_" gradientUnits="userSpaceOnUse" x1="20" y1="0.7632" x2="20" y2="39.4915">
		<stop  offset="0" style="stop-color:#E6E7E8"/>
		<stop  offset="1" style="stop-color:#F1F2F2"/>
	</linearGradient>
	<rect style="fill:url(#SVGID_1_);" width="40" height="40"/>
	<path style="fill:#636F7E;" d="M27.824,20.016l-3.511-1.064c-0.085-0.257-0.273-0.478-0.536-0.666
		c0.289-0.322,0.534-0.647,0.719-0.916c0.441-0.639,0.807-1.327,1.061-1.991c0.125-0.28,0.232-0.561,0.318-0.837
		c0.342-0.286,0.543-0.714,0.543-1.163v-1.099c0-0.316-0.099-0.624-0.282-0.88V9.851c0-2.716-2.209-4.924-4.924-4.924h-1.596
		c-2.715,0-4.924,2.209-4.924,4.924v1.548c-0.183,0.256-0.282,0.565-0.282,0.88v1.099c0,0.448,0.201,0.876,0.543,1.163
		c0.086,0.276,0.193,0.557,0.318,0.838c0.254,0.664,0.621,1.352,1.061,1.99c0.186,0.269,0.43,0.595,0.72,0.917
		c-0.263,0.188-0.451,0.41-0.536,0.666l-3.511,1.064c-2.472,0.71-3.953,11.39-3.953,11.39h0c-0.007,0.047-0.012,0.096-0.012,0.145
		c0,0.515,0.417,0.932,0.932,0.932h20.885c0.515,0,0.932-0.417,0.932-0.932C31.79,31.105,30.296,20.727,27.824,20.016z
		 M19.564,20.86c0.06,0.066,0.089,0.155,0.08,0.244l-0.173,1.678c-0.013,0.129-0.104,0.237-0.229,0.272
		c-0.028,0.008-0.056,0.012-0.085,0.012c-0.097,0-0.191-0.045-0.252-0.126l-0.887-1.176c-0.041-0.055-0.064-0.122-0.064-0.19
		l0.001-1.886c0-0.111,0.058-0.213,0.153-0.27c0.095-0.057,0.213-0.06,0.31-0.009c0.258,0.136,0.516,0.228,0.766,0.273
		c0.151,0.027,0.26,0.158,0.26,0.311v0.787C19.49,20.795,19.531,20.823,19.564,20.86z M21.187,21.104
		c-0.009-0.089,0.02-0.177,0.08-0.244c0.033-0.037,0.074-0.065,0.119-0.082v-0.787c0-0.153,0.11-0.284,0.26-0.311
		c0.25-0.044,0.508-0.136,0.766-0.273c0.098-0.052,0.216-0.048,0.31,0.009c0.095,0.057,0.153,0.16,0.153,0.27l0,1.886
		c0,0.069-0.022,0.135-0.064,0.19l-0.886,1.176c-0.061,0.08-0.155,0.126-0.252,0.126c-0.028,0-0.057-0.004-0.085-0.012
		c-0.125-0.035-0.216-0.143-0.229-0.272L21.187,21.104z M16.565,13.774l-0.017-0.131l-0.306-0.199
		c-0.09-0.058-0.144-0.158-0.144-0.265v-0.52c0-0.174,0.141-0.316,0.316-0.316h0.129v-0.563c0-0.12,0.068-0.229,0.175-0.282
		c0.435-0.217,1.297-0.581,2.19-0.581c0.712,0,1.303,0.237,1.756,0.704c0.564,0.583,1.214,0.878,1.932,0.878
		c0.406,0,0.827-0.096,1.249-0.285c0.098-0.044,0.211-0.035,0.301,0.023c0.042,0.027,0.076,0.064,0.101,0.105h0.172
		c0.174,0,0.316,0.141,0.316,0.316v0.52c0,0.107-0.054,0.206-0.144,0.265l-0.306,0.199l-0.017,0.13
		c-0.1,0.755-0.523,1.732-1.133,2.616c-0.772,1.119-1.495,1.62-1.87,1.62h-1.696c-0.375,0-1.098-0.501-1.87-1.621
		C17.088,15.506,16.665,14.529,16.565,13.774z"/>
</g>
</svg>
